<?xml version="1.0"?>
<svg xmlns="http://www.w3.org/2000/svg" xmlns:xlink="http://www.w3.org/1999/xlink" xmlns:svgjs="http://svgjs.com/svgjs" version="1.1" width="512" height="512" x="0" y="0" viewBox="0 0 496 496" style="enable-background:new 0 0 512 512" xml:space="preserve"><g><path xmlns="http://www.w3.org/2000/svg" d="m248 256c17.648438 0 32-14.351562 32-32h-16c0 8.824219-7.175781 16-16 16s-16-7.175781-16-16h-16c0 17.648438 14.351562 32 32 32zm0 0" fill="#2761d8" data-original="#000000" style=""/><path xmlns="http://www.w3.org/2000/svg" d="m216 176c0 4.417969-3.582031 8-8 8s-8-3.582031-8-8 3.582031-8 8-8 8 3.582031 8 8zm0 0" fill="#2761d8" data-original="#000000" style=""/><path xmlns="http://www.w3.org/2000/svg" d="m296 176c0 4.417969-3.582031 8-8 8s-8-3.582031-8-8 3.582031-8 8-8 8 3.582031 8 8zm0 0" fill="#2761d8" data-original="#000000" style=""/><path xmlns="http://www.w3.org/2000/svg" d="m292.632812 4.105469c-9.113281-2.617188-18.695312-4.105469-28.632812-4.105469h-32c-9.9375 0-19.519531 1.488281-28.632812 4.105469-115.511719 21.085937-203.367188 122.390625-203.367188 243.894531 0 136.742188 111.246094 248 248 248s248-111.257812 248-248c0-121.503906-87.855469-222.808594-203.367188-243.894531zm187.367188 243.894531c0 57.585938-21.136719 110.296875-56 150.894531v-17.421875c0-25.746094-17.449219-48.082031-42.425781-54.328125l-85.574219-21.390625v-24.097656c15.289062-10 27.246094-24.617188 33.960938-41.855469 21.128906-1.046875 38.039062-18.417969 38.039062-39.800781v-56c8.824219 0 16-7.175781 16-16v-16c0-8.824219-7.175781-16-16-16h-.40625c-1.746094-22.695312-10.761719-43.351562-24.769531-59.65625 80.769531 36.328125 137.175781 117.503906 137.175781 211.65625zm-128 136v71.289062c-20.390625 10.269532-42.488281 17.621094-65.761719 21.503907l-14.078125-84.457031 4.839844-19.382813 25.328125 16.886719 8-64.007813 67.367187 16.839844c17.839844 4.464844 30.304688 20.417969 30.304688 38.808594v34.28125c-12.167969 11.605469-25.542969 21.957031-40 30.726562v-62.488281zm-224 0v62.488281c-14.457031-8.769531-27.832031-19.121093-40-30.726562v-34.28125c0-18.382813 12.464844-34.34375 30.296875-38.808594l67.367187-16.839844 8 64.007813 25.328126-16.886719 4.839843 19.382813-14.078125 84.457031c-23.273437-3.882813-45.363281-11.234375-65.761718-21.503907v-71.289062zm33.367188-161.046875c-9.992188-2.898437-17.367188-12.03125-17.367188-22.953125 0-10.414062 6.710938-19.214844 16-22.527344v30.527344c0 5.105469.527344 10.078125 1.367188 14.953125zm45.21875-203.175781c.773437-.144532 1.550781-.289063 2.335937-.417969l6.390625 76.640625h-70.90625c3.273438-36.144531 28.472656-66.03125 62.179688-76.222656zm145.007812 76.222656h-70.90625l6.382812-76.640625c.785157.136719 1.5625.28125 2.335938.417969 33.714844 10.191406 58.914062 40.078125 62.1875 76.222656zm-84.28125-32h-38.617188l-1.335937-16h41.289063zm-35.953125 32-1.335937-16h35.953124l-1.335937 16zm39.855469-78.832031-1.238282 14.832031h-43.953124l-1.238282-14.832031c7.640625-.769531 15.382813-1.167969 23.214844-1.167969s15.574219.398438 23.214844 1.167969zm96.785156 94.832031.007812 16h-240.007812v-16zm-32 96v-30.527344c9.289062 3.3125 16 12.113282 16 22.527344 0 10.921875-7.375 20.054688-17.367188 22.953125.839844-4.875 1.367188-9.847656 1.367188-14.953125zm16-39.792969c-4.671875-3.535156-10.054688-6.183593-16-7.390625v-16.816406h16zm-192-7.398437c-5.945312 1.214844-11.328125 3.855468-16 7.390625v-24.199219h16zm16-16.808594h144v64c0 39.695312-32.296875 72-72 72s-72-32.304688-72-72zm85.535156 199.414062 28.367188-22.6875 4.792968 1.203126-5.03125 40.238281zm-13.535156-47.414062c11.296875 0 22.0625-2.214844 32-6.113281v18.265625l-32 25.601562-32-25.601562v-18.265625c9.9375 3.898437 20.703125 6.113281 32 6.113281zm-41.902344 24.71875 28.367188 22.6875-28.128906 18.753906-5.03125-40.238281zm32.148438 63.28125-5.117188-20.472656 14.871094-9.917969 14.871094 9.917969-5.117188 20.472656zm-85.070313-347.65625c-14.015625 16.304688-23.03125 36.960938-24.769531 59.65625h-.40625c-8.824219 0-16 7.175781-16 16v16c0 8.824219 7.175781 16 16 16v56c0 21.382812 16.910156 38.753906 38.039062 39.800781 6.714844 17.246094 18.671876 31.863281 33.960938 41.855469v24.097656l-85.574219 21.390625c-24.976562 6.246094-42.425781 28.589844-42.425781 54.335938v17.421875c-34.863281-40.605469-56-93.316406-56-150.902344 0-94.152344 56.40625-175.328125 137.175781-211.65625zm72.449219 442.550781 13.152344-78.894531h18.445312l13.152344 78.894531c-7.367188.714844-14.824219 1.105469-22.375 1.105469s-15.007812-.390625-22.375-1.105469zm0 0" fill="#2761d8" data-original="#000000" style=""/></g></svg>
